<svg xmlns="http://www.w3.org/2000/svg" viewBox="0 0 72 72" role="img" aria-label="Nenya Health icon">
  <defs>
    <linearGradient id="markLeaf" x1="0%" y1="0%" x2="100%" y2="100%">
      <stop offset="0" stop-color="#7CE9CF"/>
      <stop offset="1" stop-color="#4FAFDF"/>
    </linearGradient>
    <linearGradient id="markShield" x1="0%" y1="0%" x2="0%" y2="100%">
      <stop offset="0" stop-color="#F1FAFF"/>
      <stop offset="1" stop-color="#DDEFFD"/>
    </linearGradient>
  </defs>
  <rect width="72" height="72" rx="20" fill="#ECF4FB"/>
  <path d="M36 10 C48 18 56 24 56 40 C56 58 44 66 36 70 C28 66 16 58 16 40 C16 24 24 18 36 10 Z" fill="url(#markShield)" stroke="#B7D6EC" stroke-width="1.6"/>
  <path d="M26 42 C26 30 32 22 42 18 C54 22 60 34 54 48 C48 60 36 60 30 56 C28 52 26 48 26 42 Z" fill="url(#markLeaf)" opacity="0.95"/>
  <path d="M42 20 C48 28 54 38 56 50" stroke="#FFFFFF" stroke-width="3" stroke-linecap="round" opacity="0.85"/>
  <path d="M30 34 H42 C44 34 46 36 46 38 V40 C46 42 44 44 42 44 H30 C28 44 26 42 26 40 V38 C26 36 28 34 30 34 Z" fill="#2A6FA4" opacity="0.85"/>
  <path d="M34 30 H38 C40 30 42 32 42 34 V46 C42 48 40 50 38 50 H34 C32 50 30 48 30 46 V34 C30 32 32 30 34 30 Z" fill="#FFFFFF" opacity="0.9"/>
</svg>
