<svg xmlns="http://www.w3.org/2000/svg" viewBox="0 0 64 64" width="64" height="64" role="img" aria-label="Nenya Health sprout icon">
  <defs>
    <linearGradient id="mark-glow" x1="0%" y1="0%" x2="100%" y2="100%">
      <stop offset="0%" stop-color="#6ff5cc"/>
      <stop offset="45%" stop-color="#33b2d7"/>
      <stop offset="100%" stop-color="#5f6dff"/>
    </linearGradient>
    <filter id="soft" x="-20%" y="-20%" width="140%" height="140%">
      <feDropShadow dx="0" dy="4" stdDeviation="4" flood-color="#0f4b63" flood-opacity="0.25"/>
    </filter>
  </defs>
  <rect width="64" height="64" rx="20" fill="#ecf7ff"/>
  <g filter="url(#soft)">
    <path d="M18 38 C13 30 13 20 21 15 C28 10 38 13 42 20 C45 25 46 33 42 40 C38 47 30 53 24 55" fill="url(#mark-glow)" opacity="0.9"/>
    <path d="M28 46 C25 39 26 32 32 27 C37 23 46 22 50 26 C56 32 54 43 47 48 C42 51 36 50 28 46 Z" fill="url(#mark-glow)" opacity="0.65"/>
    <path d="M46 18 C53 23 58 33 58 43" stroke="#f6fffd" stroke-width="3" stroke-linecap="round"/>
  </g>
</svg>
