<svg xmlns="http://www.w3.org/2000/svg" viewBox="0 0 240 72" width="240" height="72" role="img" aria-label="Nenya Health logo">
  <defs>
    <linearGradient id="nh-glow" x1="0%" y1="0%" x2="100%" y2="100%">
      <stop offset="0%" stop-color="#55dfc3"/>
      <stop offset="50%" stop-color="#33b2d7"/>
      <stop offset="100%" stop-color="#4c7dff"/>
    </linearGradient>
    <linearGradient id="nh-stem" x1="0%" y1="0%" x2="0%" y2="100%">
      <stop offset="0%" stop-color="#e3fbff" stop-opacity="0.95"/>
      <stop offset="100%" stop-color="#ffffff" stop-opacity="0.65"/>
    </linearGradient>
    <filter id="nh-shadow" x="-20%" y="-20%" width="140%" height="140%">
      <feDropShadow dx="0" dy="6" stdDeviation="6" flood-color="#155a7b" flood-opacity="0.18"/>
    </filter>
  </defs>
  <rect width="240" height="72" rx="24" fill="rgba(255,255,255,0.0)"/>
  <g transform="translate(12,8)" filter="url(#nh-shadow)">
    <path d="M30 44 C18 41 10 32 10 22 C10 9 21 0 34 0 C49 0 60 12 60 26 C60 36 53 48 42 58" fill="url(#nh-glow)" opacity="0.85"/>
    <path d="M34 57 C26 50 21 42 21 35 C21 23 31 13 44 13 C52 13 60 17 65 22 C71 29 75 37 75 46 C75 56 68 65 58 65 C48 65 39 59 34 51" fill="url(#nh-glow)" opacity="0.65"/>
    <path d="M57 12 C63 18 69 26 76 38 C80 46 83 52 90 58" stroke="url(#nh-stem)" stroke-width="4" stroke-linecap="round" stroke-linejoin="round"/>
    <circle cx="90" cy="58" r="6" fill="url(#nh-stem)" opacity="0.9"/>
    <circle cx="34" cy="59" r="8" fill="#f2fffb" opacity="0.8"/>
  </g>
  <g transform="translate(120,24)">
    <text x="0" y="14" font-family="Inter, 'SF Pro Display', 'PingFang SC', 'Noto Sans SC', sans-serif" font-size="20" font-weight="600" fill="#0f233d">Nenya Health</text>
    <text x="0" y="34" font-family="'PingFang SC', 'Noto Sans SC', 'Microsoft Yahei', sans-serif" font-size="12" fill="#347c9f">嫩芽健康 · 深港跨境健康管家</text>
  </g>
</svg>
