<svg xmlns="http://www.w3.org/2000/svg" viewBox="0 0 200 200" width="200" height="200" role="img" aria-label="NENYA HEALTH">
  <defs>
    <linearGradient id="g" x1="0" x2="1">
      <stop offset="0" stop-color="#9fc8ff" />
      <stop offset="1" stop-color="#c7f0e6" />
    </linearGradient>
  </defs>
  <rect width="100%" height="100%" fill="none"/>
  <!-- abstract leaf + negative cross -->
  <g transform="translate(40,30) scale(1.2)">
    <path d="M40 10 C60 10 75 28 75 48 C75 78 40 110 40 110 C40 110 5 78 5 48 C5 28 20 10 40 10 Z" fill="url(#g)"/>
    <path d="M80 40 L120 40 L120 80 L80 80 Z" fill="#f7f9fc" opacity="0.95"/>
    <path d="M20 30 C28 20 44 16 60 22" stroke="#6b7f97" stroke-width="3" fill="none" stroke-linecap="round"/>
    <path d="M30 60 C44 72 68 76 90 64" stroke="#6b7f97" stroke-width="3" fill="none" stroke-linecap="round"/>
  </g>
  <text x="104" y="168" font-family="Inter, Arial, sans-serif" font-size="14" fill="#2f4360" text-anchor="middle">NENYA HEALTH</text>
</svg>