<svg xmlns="http://www.w3.org/2000/svg" viewBox="0 0 320 92" role="img" aria-label="Nenya Health logo">
  <defs>
    <linearGradient id="leafGradient" x1="0%" y1="0%" x2="100%" y2="100%">
      <stop offset="0" stop-color="#7CE9CF"/>
      <stop offset="1" stop-color="#50AEE0"/>
    </linearGradient>
    <linearGradient id="shieldGradient" x1="0%" y1="0%" x2="0%" y2="100%">
      <stop offset="0" stop-color="#E3F4FF"/>
      <stop offset="1" stop-color="#F9FEFF"/>
    </linearGradient>
  </defs>
  <rect width="320" height="92" fill="none"/>
  <g transform="translate(12,6)">
    <path d="M60 4 C86 18 110 34 110 68 C110 96 86 114 60 124 C34 114 10 96 10 68 C10 34 34 18 60 4 Z" fill="url(#shieldGradient)" stroke="#B7D6EC" stroke-width="2" />
    <path d="M32 62 C32 38 46 22 66 16 C94 22 108 46 98 76 C88 102 66 110 50 104 C42 92 32 82 32 62 Z" fill="url(#leafGradient)" opacity="0.85"/>
    <path d="M66 20 C78 32 92 52 98 78" stroke="#FFFFFF" stroke-width="4" stroke-linecap="round" opacity="0.85"/>
    <path d="M60 40 C60 38 62 36 64 36 H74 C76 36 78 38 78 40 V50 C78 52 76 54 74 54 H64 C62 54 60 52 60 50 Z" fill="#2A6FA4" opacity="0.8"/>
    <path d="M54 44 C54 42 56 40 58 40 H80 C82 40 84 42 84 44 V46 C84 48 82 50 80 50 H58 C56 50 54 48 54 46 Z" fill="#FFFFFF"/>
  </g>
  <g transform="translate(150,34)">
    <text font-family=\"'Inter','PingFang SC','Noto Sans SC',sans-serif\" font-weight=\"600\" font-size=\"24\" fill=\"#0F233D\">Nenya Health</text>
    <text y=\"24\" font-family=\"'PingFang SC','Noto Sans SC',sans-serif\" font-size=\"12\" fill=\"#3C6F9F\" letter-spacing=\"0.08em\">嫩芽健康｜跨境医疗健康管家</text>
  </g>
</svg>
